<svg id="svg" version="1.1" xmlns="http://www.w3.org/2000/svg" xmlns:xlink="http://www.w3.org/1999/xlink" width="400" height="400" viewBox="0, 0, 400,400"><g id="svgg"><path id="path0" d="M193.753 71.842 C 153.552 75.410,122.935 115.388,130.622 154.276 C 134.464 173.711,143.703 190.715,155.737 200.499 C 187.847 226.605,255.880 204.603,269.341 163.760 C 283.987 119.325,241.457 67.608,193.753 71.842 M212.087 79.607 C 223.803 81.315,235.187 88.130,245.600 99.668 C 247.320 101.574,249.888 104.367,251.307 105.875 C 260.849 116.016,266.315 136.962,263.630 153.091 C 258.733 182.493,224.567 206.660,192.789 203.198 C 171.541 200.884,150.873 186.549,143.247 168.840 C 134.463 148.438,134.315 132.608,142.762 116.613 C 158.282 87.219,181.026 75.079,212.087 79.607 M194.942 81.677 C 157.373 84.985,132.272 123.303,144.092 159.300 C 155.353 193.597,194.735 209.976,227.096 193.821 C 255.785 179.498,267.927 145.009,254.520 115.919 C 253.138 112.920,253.748 112.826,248.833 116.791 C 225.666 135.481,209.651 145.063,195.200 148.881 C 190.012 150.252,181.857 150.391,178.691 149.163 C 178.281 149.004,178.122 149.038,178.257 149.257 C 178.374 149.447,179.504 149.922,180.768 150.313 C 194.299 154.501,215.424 150.008,231.160 139.595 C 234.727 137.234,234.677 137.195,233.544 141.454 C 227.495 164.178,205.746 174.999,184.545 165.833 C 173.942 161.249,163.869 150.102,161.400 140.220 L 161.188 139.373 164.675 139.373 C 170.172 139.373,172.646 137.973,181.292 129.965 C 183.952 127.502,186.963 124.786,187.984 123.930 C 199.110 114.597,211.054 113.155,223.602 119.631 C 230.604 123.244,237.338 120.648,247.393 110.460 L 250.077 107.739 248.070 105.100 C 235.471 88.536,215.755 79.843,194.942 81.677 M203.338 85.756 L 204.185 86.839 205.347 86.213 C 211.015 83.161,213.608 91.244,208.249 95.259 C 202.890 99.272,196.224 95.559,200.130 90.735 C 200.730 89.994,200.725 89.944,199.950 88.801 C 198.899 87.254,198.937 86.966,200.350 85.725 C 201.855 84.404,202.284 84.409,203.338 85.756 M189.656 91.940 C 190.556 93.024,189.235 94.689,188.061 93.950 C 186.888 93.212,187.306 91.448,188.654 91.448 C 188.981 91.448,189.432 91.669,189.656 91.940 M227.148 99.794 C 232.226 102.203,230.711 109.876,225.065 110.344 C 223.085 110.508,221.853 110.016,220.447 108.498 C 216.287 104.005,221.568 97.146,227.148 99.794 M188.799 104.446 C 191.943 106.844,191.970 111.255,188.855 113.631 C 183.542 117.684,176.729 110.511,181.033 105.397 C 182.979 103.084,186.455 102.658,188.799 104.446 M163.404 106.830 C 166.528 108.135,165.686 112.786,162.326 112.786 C 158.855 112.786,157.756 108.533,160.800 106.881 C 161.963 106.250,162.014 106.249,163.404 106.830 M169.654 124.496 C 172.523 126.909,171.192 133.446,167.832 133.446 C 166.740 133.446,164.945 131.778,164.945 130.763 C 164.945 130.185,164.734 130.059,163.766 130.059 C 161.639 130.059,161.650 127.215,163.779 126.816 C 164.478 126.685,164.945 126.398,164.945 126.101 C 164.945 124.148,168.002 123.106,169.654 124.496 M152.760 127.868 C 153.330 128.554,152.677 130.059,151.811 130.059 C 151.049 130.059,150.381 129.426,150.381 128.704 C 150.381 127.461,151.962 126.906,152.760 127.868 M246.915 131.365 C 249.283 132.625,250.254 135.818,248.992 138.193 C 247.300 141.376,243.047 141.862,240.606 139.152 C 236.877 135.010,241.964 128.730,246.915 131.365 M152.966 142.466 C 153.645 142.788,154.478 143.612,154.965 144.443 C 158.114 149.816,151.069 155.420,146.681 151.032 C 142.328 146.679,147.367 139.809,152.966 142.466 M246.070 151.440 C 247.882 153.111,247.870 153.005,246.472 154.843 L 245.357 156.308 246.128 157.663 C 247.468 160.020,247.016 162.246,244.822 164.093 C 240.276 167.918,230.315 159.192,232.969 153.709 C 234.291 150.978,237.856 149.997,240.189 151.722 L 241.263 152.516 242.308 151.310 C 243.672 149.737,244.244 149.757,246.070 151.440 M171.151 162.155 C 172.033 162.940,172.813 164.844,172.568 165.615 C 172.406 166.125,172.611 166.277,173.712 166.462 C 175.221 166.718,175.553 167.239,175.247 168.873 C 174.962 170.389,174.357 170.828,172.923 170.559 C 171.865 170.361,171.698 170.438,171.228 171.347 C 169.685 174.330,165.714 174.135,164.466 171.014 C 162.327 165.670,167.458 158.869,171.151 162.155 M236.607 171.740 C 239.266 174.224,238.976 178.028,235.990 179.849 C 231.960 182.306,226.947 177.629,229.116 173.436 C 230.570 170.624,234.468 169.742,236.607 171.740 M215.928 174.833 C 219.498 176.459,217.165 181.889,213.546 180.377 C 211.708 179.609,211.087 177.466,212.229 175.834 C 213.137 174.538,214.481 174.174,215.928 174.833 M194.458 178.423 C 201.372 182.024,198.783 192.534,190.997 192.468 C 184.165 192.409,181.045 184.307,186.030 179.568 C 188.393 177.322,191.525 176.896,194.458 178.423 M174.912 182.751 C 175.542 183.380,175.547 183.426,175.094 184.273 C 174.647 185.108,173.204 185.127,172.763 184.303 C 172.041 182.955,173.827 181.665,174.912 182.751 M208.025 186.851 C 208.506 187.286,208.746 187.325,209.051 187.020 C 210.707 185.364,212.911 187.903,211.818 190.206 C 210.203 193.610,204.957 193.283,206.258 189.859 C 206.497 189.230,206.478 188.781,206.192 188.323 C 205.440 187.119,206.967 185.893,208.025 186.851 M161.558 302.964 L 161.558 308.213 162.726 308.213 L 163.893 308.213 163.996 306.435 L 164.098 304.657 165.716 304.471 C 171.430 303.815,170.118 297.714,164.262 297.714 L 161.558 297.714 161.558 302.964 M180.940 302.879 L 181.033 308.044 182.134 308.044 C 182.739 308.044,183.235 307.930,183.235 307.790 C 183.235 307.650,183.235 305.326,183.235 302.625 L 183.235 297.714 182.040 297.714 L 180.846 297.714 180.940 302.879 M195.428 298.545 C 195.428 299.331,195.546 299.382,197.610 299.476 L 199.792 299.577 197.418 303.054 C 194.141 307.852,194.189 308.016,198.899 308.140 L 202.540 308.236 202.540 307.209 L 202.540 306.181 200.339 306.181 C 199.128 306.181,198.137 306.110,198.137 306.023 C 198.137 305.936,199.128 304.460,200.339 302.743 C 201.788 300.688,202.540 299.295,202.540 298.667 L 202.540 297.714 198.984 297.714 C 195.434 297.714,195.428 297.715,195.428 298.545 M214.056 298.545 C 214.056 299.332,214.173 299.382,216.259 299.476 L 218.462 299.577 216.066 303.049 C 212.757 307.844,212.806 308.016,217.528 308.140 L 221.169 308.236 221.169 307.224 C 221.169 306.214,221.165 306.212,218.947 306.112 L 216.726 306.012 218.947 302.794 C 220.365 300.741,221.168 299.239,221.168 298.645 L 221.169 297.714 217.612 297.714 C 214.062 297.714,214.056 297.715,214.056 298.545 M233.423 302.733 C 231.726 308.748,231.749 308.213,233.183 308.213 C 234.225 308.213,234.390 308.089,234.642 307.113 C 235.086 305.390,237.836 305.251,238.315 306.927 C 238.539 307.711,238.865 308.077,239.409 308.155 C 241.056 308.392,241.142 308.106,240.285 305.273 C 239.844 303.817,239.166 301.520,238.779 300.169 L 238.075 297.714 236.457 297.714 L 234.840 297.714 233.423 302.733 M166.500 300.254 C 167.273 301.434,166.436 302.794,164.937 302.794 C 163.953 302.794,163.929 302.754,163.929 301.101 C 163.929 299.069,165.405 298.583,166.500 300.254 M237.544 303.218 C 237.766 304.101,237.717 304.149,236.586 304.149 C 235.261 304.149,235.241 304.093,235.763 301.843 C 236.458 298.848,236.449 298.841,237.544 303.218 M124.979 302.625 L 124.979 303.472 139.712 303.472 L 154.445 303.472 154.445 302.625 L 154.445 301.778 139.712 301.778 L 124.979 301.778 124.979 302.625 M245.216 302.625 L 245.216 303.472 259.949 303.472 L 274.682 303.472 274.682 302.625 L 274.682 301.778 259.949 301.778 L 245.216 301.778 245.216 302.625 " stroke="none" fill="#edbb12" fill-rule="evenodd"></path><path id="path1" d="M229.858 224.011 C 226.305 225.339,225.910 226.497,225.910 235.587 L 225.910 242.915 224.710 241.862 C 212.063 230.757,189.042 243.354,188.997 261.403 C 188.952 279.536,212.538 292.087,224.675 280.389 C 226.697 278.439,226.466 278.499,226.721 279.859 C 227.249 282.674,229.492 283.984,233.733 283.953 C 235.334 283.941,236.820 283.823,237.035 283.690 C 237.775 283.233,237.576 224.349,236.833 224.053 C 235.562 223.547,231.170 223.521,229.858 224.011 M137.785 238.112 C 118.153 240.452,109.605 263.616,123.279 277.423 C 131.746 285.973,144.938 287.231,152.449 280.205 L 154.018 278.737 154.230 280.058 C 154.509 281.804,155.968 283.324,157.856 283.837 C 159.486 284.280,164.142 284.089,164.673 283.558 C 165.438 282.792,164.816 256.420,163.971 253.853 C 160.400 242.993,149.881 236.670,137.785 238.112 M185.142 238.136 C 175.585 239.144,169.273 244.493,167.513 253.076 C 166.562 257.711,166.734 278.466,167.739 280.433 C 169.088 283.073,171.621 284.030,176.143 283.610 L 178.457 283.395 178.571 270.148 C 178.724 252.415,179.272 251.123,187.638 248.797 C 191.796 247.640,192.717 246.307,192.981 241.067 L 193.147 237.765 190.477 237.810 C 189.009 237.834,186.608 237.981,185.142 238.136 M261.052 238.123 C 240.628 240.475,232.842 266.324,248.650 279.294 C 260.229 288.795,278.917 285.219,285.275 272.286 C 286.900 268.982,286.883 268.776,284.928 268.021 C 280.678 266.381,277.106 267.262,272.520 271.080 C 267.087 275.603,260.861 275.722,256.048 271.395 C 254.416 269.927,252.339 266.892,252.332 265.964 C 252.329 265.636,256.207 265.525,270.025 265.456 L 287.722 265.368 287.821 261.981 C 288.246 247.426,275.890 236.414,261.052 238.123 M308.213 238.108 C 299.886 239.174,294.170 243.681,291.475 251.304 L 290.455 254.191 290.335 265.794 L 290.215 277.397 291.064 279.251 C 292.421 282.214,296.119 284.068,300.085 283.772 L 301.609 283.658 301.778 270.110 L 301.948 256.562 302.934 254.426 C 306.715 246.237,318.452 247.095,320.891 255.738 C 321.316 257.243,321.423 259.500,321.423 266.953 C 321.423 281.826,322.091 283.111,330.004 283.434 L 333.335 283.570 333.186 269.389 C 333.062 257.567,332.943 254.846,332.471 253.036 C 329.740 242.569,320.033 236.595,308.213 238.108 M88.061 238.666 C 61.636 242.121,58.753 277.677,84.400 283.825 C 91.130 285.439,97.588 284.351,101.863 280.885 L 103.302 279.718 103.302 281.537 C 103.302 291.176,89.064 294.859,81.172 287.261 C 76.744 282.998,72.735 282.338,68.762 285.216 C 67.047 286.458,67.051 286.505,69.112 289.854 C 80.591 308.507,109.806 305.770,114.277 285.623 C 115.159 281.647,115.061 259.627,114.144 255.801 C 111.449 244.563,100.081 237.094,88.061 238.666 M267.630 248.644 C 270.465 249.351,274.042 252.567,275.434 255.659 C 276.300 257.585,277.378 257.430,263.881 257.329 L 251.959 257.240 252.997 255.163 C 255.767 249.620,261.430 247.097,267.630 248.644 M146.735 250.226 C 155.681 254.634,155.897 267.570,147.103 272.217 C 134.684 278.780,122.476 264.282,131.144 253.266 C 134.526 248.968,141.444 247.619,146.735 250.226 M218.864 250.018 C 228.187 254.376,228.419 267.777,219.252 272.423 C 207.167 278.546,195.190 264.291,203.389 253.542 C 206.696 249.205,213.710 247.608,218.864 250.018 M94.984 250.179 C 107.380 253.972,105.769 272.229,92.854 274.309 C 80.845 276.243,73.327 261.697,81.902 253.122 C 85.282 249.742,90.050 248.669,94.984 250.179 " stroke="none" fill="#fafafa" fill-rule="evenodd"></path><path id="path2" d="M0.000 200.000 L 0.000 400.000 200.000 400.000 L 400.000 400.000 400.000 200.000 L 400.000 0.000 200.000 0.000 L 0.000 0.000 0.000 200.000 M207.645 71.991 C 251.997 78.177,283.790 127.209,268.686 166.130 C 253.664 204.840,190.505 225.432,157.852 202.267 C 139.743 189.420,125.720 155.539,129.578 133.954 C 136.690 94.164,171.056 66.888,207.645 71.991 M192.416 79.280 C 170.668 81.733,153.856 94.732,142.085 118.198 C 132.053 138.195,137.342 167.987,153.701 183.639 C 177.549 206.455,206.899 209.673,234.716 192.522 C 262.905 175.141,271.135 147.685,257.745 115.695 C 254.827 108.725,241.084 93.962,231.470 87.471 C 221.294 80.600,207.102 77.623,192.416 79.280 M208.637 81.803 C 224.585 84.061,238.487 92.244,248.214 105.098 C 250.461 108.067,250.537 107.789,246.431 111.597 C 235.169 122.040,231.021 123.372,222.516 119.275 C 208.106 112.334,197.652 114.997,181.816 129.645 C 172.279 138.466,167.577 140.921,162.762 139.591 C 161.040 139.116,161.052 139.083,162.007 141.621 C 170.144 163.239,193.676 174.449,213.441 166.123 C 223.248 161.992,230.488 152.879,233.534 140.832 C 233.832 139.657,234.147 138.448,234.236 138.144 C 234.332 137.817,232.902 138.579,230.739 140.007 C 215.088 150.338,192.756 154.879,180.186 150.286 C 178.075 149.515,176.291 148.426,177.815 148.840 C 193.825 153.186,214.272 144.138,246.571 118.415 C 249.831 115.819,252.687 113.549,252.919 113.370 C 253.231 113.129,253.698 113.820,254.730 116.049 C 269.500 147.948,252.948 185.957,219.403 197.173 C 183.408 209.207,145.425 184.782,141.259 146.923 C 137.847 115.909,160.675 86.324,191.363 81.987 C 192.760 81.789,194.285 81.572,194.750 81.504 C 197.007 81.172,205.472 81.355,208.637 81.803 M200.586 85.538 C 199.171 86.529,199.046 87.237,200.027 88.718 L 200.918 90.065 200.205 90.971 C 198.268 93.434,200.239 97.214,203.455 97.202 C 205.880 97.194,209.735 94.321,210.822 91.713 C 212.474 87.747,209.210 84.435,205.510 86.321 L 204.272 86.952 203.343 85.983 C 202.290 84.884,201.664 84.783,200.586 85.538 M187.673 92.252 C 186.941 93.134,188.015 94.381,189.136 93.951 C 190.316 93.498,189.935 91.787,188.654 91.787 C 188.327 91.787,187.886 91.996,187.673 92.252 M222.320 99.883 C 217.960 101.864,218.215 108.215,222.724 109.937 C 227.897 111.912,232.374 105.550,228.772 101.342 C 226.985 99.254,224.796 98.759,222.320 99.883 M183.909 103.748 C 178.377 105.615,178.512 113.020,184.105 114.446 C 188.540 115.576,192.328 111.141,190.554 106.896 C 189.460 104.278,186.498 102.875,183.909 103.748 M160.177 107.679 C 158.293 109.563,159.592 112.786,162.235 112.786 C 162.964 112.786,163.618 112.471,164.294 111.796 C 164.969 111.120,165.284 110.467,165.284 109.738 C 165.284 109.008,164.969 108.355,164.294 107.679 C 163.618 107.004,162.964 106.689,162.235 106.689 C 161.506 106.689,160.853 107.004,160.177 107.679 M166.029 124.650 C 165.624 125.027,165.199 125.705,165.086 126.155 C 164.932 126.770,164.616 126.999,163.812 127.077 C 162.808 127.174,162.743 127.263,162.743 128.535 C 162.743 129.808,162.808 129.896,163.812 129.994 C 164.623 130.072,164.932 130.299,165.091 130.934 C 165.788 133.711,169.442 133.908,170.562 131.228 C 172.398 126.834,168.991 121.890,166.029 124.650 M150.733 127.841 C 149.734 129.046,151.568 130.431,152.684 129.314 C 153.220 128.779,153.197 128.521,152.558 127.882 C 151.894 127.218,151.262 127.204,150.733 127.841 M242.180 131.499 C 237.418 133.940,239.522 141.304,244.831 140.779 C 251.238 140.147,250.636 130.762,244.187 130.739 C 243.900 130.738,242.997 131.080,242.180 131.499 M147.911 142.602 C 143.018 145.258,145.282 152.788,150.830 152.310 C 157.162 151.764,157.100 142.510,150.761 142.025 C 149.646 141.939,148.826 142.106,147.911 142.602 M242.555 151.224 L 241.205 152.443 239.913 151.751 C 237.554 150.486,234.612 151.118,233.370 153.155 C 229.685 159.200,241.890 168.982,245.756 163.081 C 246.958 161.247,246.895 158.540,245.616 157.062 C 245.144 156.517,245.165 156.376,245.838 155.538 C 247.665 153.265,247.451 152.082,244.948 150.616 L 243.904 150.005 242.555 151.224 M166.516 162.578 C 163.851 164.918,163.355 169.965,165.543 172.474 C 166.854 173.978,170.250 173.291,171.110 171.348 C 171.501 170.466,171.708 170.364,173.117 170.364 C 174.813 170.364,175.091 170.018,175.101 167.898 C 175.106 166.944,174.995 166.856,173.328 166.491 C 172.570 166.325,172.396 166.102,172.396 165.293 C 172.396 161.975,168.993 160.404,166.516 162.578 M232.090 170.928 C 230.751 171.211,229.068 173.109,228.813 174.625 C 227.898 180.049,235.350 182.633,237.730 177.718 C 239.609 173.837,236.431 170.011,232.090 170.928 M213.010 175.201 C 211.457 176.394,211.319 178.178,212.675 179.535 C 214.597 181.457,217.511 180.319,217.511 177.646 C 217.511 175.392,214.730 173.881,213.010 175.201 M188.325 178.192 C 183.627 180.067,182.202 186.410,185.677 189.982 C 192.225 196.713,202.655 187.587,196.688 180.348 C 194.875 178.148,190.962 177.140,188.325 178.192 M172.976 182.767 C 172.142 183.602,173.260 185.130,174.432 184.758 C 175.512 184.415,175.237 182.762,174.077 182.626 C 173.604 182.571,173.109 182.635,172.976 182.767 M206.334 187.028 C 205.795 187.567,205.820 187.821,206.481 188.482 C 206.895 188.895,206.938 189.134,206.651 189.421 C 205.376 190.695,207.013 193.029,208.857 192.566 C 211.125 191.997,212.901 188.650,211.617 187.367 C 211.118 186.867,209.239 186.832,208.758 187.313 C 208.513 187.558,208.272 187.506,207.971 187.144 C 207.451 186.517,206.885 186.477,206.334 187.028 M236.749 223.872 L 237.595 224.096 237.682 253.800 L 237.768 283.504 236.898 283.835 C 232.864 285.369,226.588 282.909,226.588 279.795 C 226.588 278.863,226.625 278.847,224.699 280.622 C 221.220 283.827,217.422 285.034,211.685 284.758 C 187.364 283.587,180.332 251.749,201.905 240.479 C 209.422 236.551,219.674 237.029,224.491 241.531 L 225.572 242.541 225.586 235.665 C 225.602 228.510,225.840 226.959,227.147 225.514 C 228.913 223.563,232.959 222.871,236.749 223.872 M146.033 238.242 C 155.476 240.055,161.765 245.753,164.383 254.869 C 164.999 257.016,165.077 258.479,165.201 270.362 L 165.339 283.484 164.380 283.859 C 160.136 285.519,154.107 283.185,154.107 279.882 C 154.107 278.852,154.161 278.830,152.218 280.626 C 143.963 288.253,127.916 285.182,120.621 274.578 C 108.448 256.887,124.394 234.087,146.033 238.242 M193.381 239.035 C 193.299 245.964,191.993 247.867,186.241 249.433 C 183.285 250.238,181.230 251.803,180.025 254.166 L 179.001 256.174 178.831 269.916 L 178.662 283.658 174.767 283.658 C 170.214 283.658,168.862 283.096,167.559 280.660 C 166.493 278.667,166.392 256.010,167.433 252.329 C 170.209 242.509,177.144 237.889,189.246 237.796 L 193.395 237.765 193.381 239.035 M269.366 238.301 C 278.574 240.328,285.902 247.798,287.745 257.035 C 288.302 259.830,288.312 264.584,287.762 265.473 C 287.575 265.777,283.154 265.876,269.915 265.876 L 252.317 265.876 253.190 267.599 C 256.989 275.096,266.046 276.547,272.699 270.726 C 275.750 268.056,277.633 267.239,280.740 267.234 C 287.490 267.226,288.096 269.174,283.346 275.626 C 273.517 288.978,251.544 287.539,243.090 272.989 C 232.831 255.332,249.110 233.842,269.366 238.301 M319.560 238.922 C 325.928 241.082,329.775 244.886,332.071 251.297 L 333.108 254.191 333.212 269.060 L 333.316 283.929 330.108 283.738 C 325.593 283.468,323.114 282.254,321.993 279.763 C 321.750 279.225,321.538 274.902,321.410 267.909 C 321.233 258.278,321.127 256.668,320.560 255.041 C 317.892 247.381,306.969 246.699,303.389 253.968 L 302.286 256.207 302.117 269.908 L 301.948 283.610 300.931 283.895 C 297.517 284.853,292.636 282.612,290.824 279.255 C 289.809 277.374,289.705 257.112,290.690 253.243 C 293.785 241.090,306.845 234.612,319.560 238.922 M98.555 239.450 C 106.505 241.745,112.125 247.520,114.381 255.715 C 115.283 258.989,115.292 282.867,114.393 286.198 C 108.931 306.444,79.657 308.413,68.585 289.281 L 66.938 286.436 67.931 285.610 C 71.770 282.418,77.699 282.864,80.676 286.569 C 87.341 294.863,101.939 291.646,103.137 281.620 L 103.379 279.594 102.071 280.845 C 93.652 288.894,75.170 284.151,68.968 272.349 C 59.300 253.952,77.745 233.443,98.555 239.450 M260.635 248.808 C 257.230 249.893,253.634 253.134,252.626 256.026 C 252.107 257.515,251.317 257.427,264.309 257.329 L 276.056 257.240 275.129 255.377 C 272.427 249.946,266.083 247.071,260.635 248.808 M137.945 249.248 C 130.258 251.227,126.219 259.663,129.636 266.602 C 135.587 278.690,154.215 274.028,153.358 260.666 C 152.866 253.008,145.251 247.367,137.945 249.248 M210.426 249.248 C 196.144 252.924,198.650 273.490,213.378 273.490 C 229.617 273.490,230.107 249.958,213.887 249.094 C 212.583 249.025,211.025 249.094,210.426 249.248 M87.892 249.914 C 73.586 253.697,76.005 274.062,90.771 274.154 C 106.936 274.255,107.677 250.534,91.532 249.769 C 90.089 249.701,88.450 249.766,87.892 249.914 M167.886 298.258 C 170.722 300.370,169.261 304.313,165.485 304.739 L 163.915 304.916 164.006 306.480 L 164.098 308.044 162.743 308.044 L 161.389 308.044 161.294 303.149 C 161.242 300.456,161.282 298.039,161.382 297.778 C 161.685 296.988,166.674 297.356,167.886 298.258 M183.497 302.879 L 183.590 308.213 182.227 308.213 L 180.864 308.213 180.864 303.020 C 180.864 297.350,180.878 297.297,182.376 297.444 L 183.404 297.544 183.497 302.879 M202.540 298.584 C 202.540 299.524,202.046 300.503,200.324 302.972 L 198.109 306.150 200.409 306.250 C 202.610 306.346,202.710 306.387,202.710 307.197 L 202.710 308.044 198.899 308.140 L 195.089 308.236 195.089 307.171 C 195.089 306.440,195.596 305.402,196.706 303.858 C 198.358 301.559,199.492 299.853,199.492 299.664 C 199.492 299.606,198.881 299.617,198.134 299.688 C 196.075 299.885,195.089 299.536,195.089 298.611 C 195.089 297.430,195.264 297.375,199.040 297.375 L 202.540 297.375 202.540 298.584 M221.206 297.798 C 221.330 299.199,220.874 300.236,218.932 302.964 L 216.761 306.012 219.050 306.181 C 221.219 306.342,221.338 306.394,221.338 307.197 L 221.338 308.044 217.528 308.140 L 213.717 308.236 213.717 307.243 C 213.717 306.578,214.448 305.180,215.938 302.998 L 218.159 299.746 216.474 299.746 C 214.009 299.746,212.812 298.732,213.943 297.601 C 214.384 297.159,221.166 297.344,221.206 297.798 M239.688 302.625 C 240.484 305.419,241.138 307.820,241.143 307.959 C 241.174 308.889,238.413 308.154,238.219 307.181 C 237.932 305.748,235.050 305.762,234.716 307.197 C 234.549 307.917,234.300 308.060,233.049 308.150 C 231.944 308.230,231.621 308.146,231.748 307.812 C 231.841 307.567,232.491 305.385,233.191 302.964 C 234.879 297.130,234.761 297.318,236.670 297.442 L 238.242 297.544 239.688 302.625 M164.155 299.633 C 163.544 300.244,163.926 302.794,164.629 302.794 C 165.881 302.794,166.638 302.156,166.638 301.101 C 166.638 299.844,164.945 298.843,164.155 299.633 M236.095 301.439 C 235.877 302.278,235.641 303.138,235.570 303.352 C 235.499 303.566,235.884 303.805,236.428 303.885 C 237.408 304.029,237.413 304.020,237.201 302.650 C 236.796 300.037,236.534 299.750,236.095 301.439 M154.445 302.794 L 154.445 303.810 139.543 303.810 L 124.640 303.810 124.640 302.794 L 124.640 301.778 139.543 301.778 L 154.445 301.778 154.445 302.794 M275.021 302.794 L 275.021 303.810 260.119 303.810 L 245.216 303.810 245.216 302.794 L 245.216 301.778 260.119 301.778 L 275.021 301.778 275.021 302.794 " stroke="none" fill="#3f3f3f" fill-rule="evenodd"></path><path id="path3" d="M194.501 71.708 C 195.016 71.786,195.778 71.784,196.194 71.703 C 196.611 71.623,196.190 71.559,195.258 71.562 C 194.327 71.564,193.986 71.630,194.501 71.708 M202.286 71.707 C 202.798 71.785,203.637 71.785,204.149 71.707 C 204.661 71.630,204.242 71.566,203.218 71.566 C 202.193 71.566,201.774 71.630,202.286 71.707 M198.730 78.825 C 199.522 78.897,200.817 78.897,201.609 78.825 C 202.401 78.754,201.753 78.696,200.169 78.696 C 198.586 78.696,197.938 78.754,198.730 78.825 M193.315 79.156 C 193.736 79.237,194.346 79.234,194.669 79.149 C 194.993 79.064,194.649 78.998,193.903 79.002 C 193.158 79.005,192.893 79.075,193.315 79.156 M206.181 79.155 C 206.600 79.236,207.286 79.236,207.705 79.155 C 208.124 79.074,207.782 79.008,206.943 79.008 C 206.105 79.008,205.762 79.074,206.181 79.155 M196.020 81.526 C 196.439 81.607,197.125 81.607,197.544 81.526 C 197.964 81.445,197.621 81.379,196.782 81.379 C 195.944 81.379,195.601 81.445,196.020 81.526 M203.810 81.526 C 204.229 81.607,204.915 81.607,205.334 81.526 C 205.754 81.445,205.411 81.379,204.572 81.379 C 203.734 81.379,203.391 81.445,203.810 81.526 M201.863 84.914 C 202.142 85.017,202.676 85.348,203.048 85.650 C 203.720 86.193,203.720 86.192,203.080 85.436 C 202.726 85.017,202.192 84.686,201.895 84.701 C 201.436 84.723,201.432 84.756,201.863 84.914 M150.708 92.041 L 148.857 93.988 150.804 92.137 C 152.614 90.417,152.907 90.093,152.656 90.093 C 152.603 90.093,151.726 90.970,150.708 92.041 M187.594 92.010 C 187.169 92.525,187.194 92.533,187.892 92.098 C 188.545 91.691,188.762 91.691,189.416 92.098 C 190.113 92.533,190.138 92.525,189.713 92.010 C 189.457 91.701,188.981 91.448,188.654 91.448 C 188.327 91.448,187.850 91.701,187.594 92.010 M249.280 93.311 C 250.292 94.335,251.196 95.174,251.289 95.174 C 251.382 95.174,250.631 94.335,249.619 93.311 C 248.607 92.286,247.703 91.448,247.610 91.448 C 247.517 91.448,248.268 92.286,249.280 93.311 M158.161 95.089 L 155.970 97.375 158.256 95.183 C 159.513 93.978,160.542 92.949,160.542 92.897 C 160.542 92.648,160.197 92.965,158.161 95.089 M208.785 94.581 L 207.790 95.682 208.891 94.687 C 209.496 94.140,209.992 93.644,209.992 93.586 C 209.992 93.324,209.712 93.555,208.785 94.581 M242.676 96.867 C 244.157 98.357,245.446 99.577,245.539 99.577 C 245.632 99.577,244.496 98.357,243.014 96.867 C 241.533 95.377,240.245 94.157,240.151 94.157 C 240.058 94.157,241.194 95.377,242.676 96.867 M242.492 98.645 C 243.323 99.530,244.047 100.254,244.101 100.254 C 244.355 100.254,244.086 99.950,242.591 98.546 L 240.982 97.036 242.492 98.645 M230.067 104.657 C 230.067 105.495,230.133 105.838,230.214 105.419 C 230.294 105.000,230.294 104.314,230.214 103.895 C 230.133 103.476,230.067 103.819,230.067 104.657 M250.804 105.673 C 251.722 106.605,252.549 107.367,252.642 107.367 C 252.735 107.367,252.061 106.605,251.143 105.673 C 250.226 104.742,249.399 103.980,249.306 103.980 C 249.213 103.980,249.887 104.742,250.804 105.673 M247.746 110.161 L 245.724 112.278 247.841 110.256 C 249.005 109.144,249.958 108.192,249.958 108.139 C 249.958 107.889,249.623 108.195,247.746 110.161 M207.881 115.741 C 208.490 115.816,209.404 115.815,209.913 115.737 C 210.422 115.660,209.924 115.598,208.806 115.600 C 207.688 115.602,207.272 115.665,207.881 115.741 M228.874 121.492 C 229.293 121.573,229.979 121.573,230.398 121.492 C 230.817 121.411,230.474 121.345,229.636 121.345 C 228.798 121.345,228.455 121.411,228.874 121.492 M184.737 126.757 L 183.743 127.858 184.843 126.863 C 185.449 126.316,185.944 125.820,185.944 125.762 C 185.944 125.501,185.665 125.731,184.737 126.757 M171.120 128.366 C 171.120 129.018,171.190 129.285,171.275 128.959 C 171.360 128.633,171.360 128.099,171.275 127.773 C 171.190 127.447,171.120 127.714,171.120 128.366 M179.829 131.329 L 178.662 132.599 179.932 131.432 C 181.114 130.346,181.358 130.059,181.099 130.059 C 181.043 130.059,180.471 130.631,179.829 131.329 M136.626 140.051 C 136.627 142.472,136.681 143.419,136.746 142.154 C 136.811 140.888,136.811 138.907,136.745 137.751 C 136.679 136.594,136.626 137.629,136.626 140.051 M259.858 136.833 C 259.858 137.485,259.928 137.752,260.013 137.426 C 260.099 137.100,260.099 136.566,260.013 136.240 C 259.928 135.914,259.858 136.181,259.858 136.833 M141.028 140.898 C 141.028 143.226,141.082 144.179,141.148 143.014 C 141.214 141.850,141.214 139.945,141.148 138.781 C 141.082 137.616,141.028 138.569,141.028 140.898 M129.129 138.357 C 129.132 139.102,129.202 139.367,129.283 138.946 C 129.364 138.525,129.361 137.915,129.276 137.591 C 129.191 137.267,129.125 137.612,129.129 138.357 M272.051 139.204 C 272.051 139.856,272.121 140.123,272.206 139.797 C 272.292 139.471,272.292 138.937,272.206 138.611 C 272.121 138.285,272.051 138.552,272.051 139.204 M164.014 139.785 C 164.526 139.863,165.364 139.863,165.876 139.785 C 166.389 139.708,165.970 139.644,164.945 139.644 C 163.920 139.644,163.501 139.708,164.014 139.785 M264.305 144.285 C 264.305 146.054,264.362 146.778,264.432 145.893 C 264.502 145.008,264.502 143.561,264.432 142.676 C 264.362 141.791,264.305 142.515,264.305 144.285 M272.438 145.470 C 272.439 147.519,272.495 148.314,272.562 147.236 C 272.630 146.158,272.629 144.481,272.561 143.510 C 272.493 142.539,272.438 143.421,272.438 145.470 M129.140 144.793 C 129.143 145.724,129.208 146.065,129.286 145.550 C 129.364 145.035,129.362 144.273,129.282 143.856 C 129.201 143.440,129.138 143.861,129.140 144.793 M259.872 144.623 C 259.872 145.461,259.938 145.804,260.019 145.385 C 260.100 144.966,260.100 144.280,260.019 143.861 C 259.938 143.442,259.872 143.785,259.872 144.623 M145.047 147.163 C 145.051 147.909,145.120 148.173,145.201 147.752 C 145.282 147.331,145.279 146.721,145.195 146.397 C 145.110 146.074,145.044 146.418,145.047 147.163 M188.738 149.937 C 189.064 150.022,189.598 150.022,189.924 149.937 C 190.250 149.852,189.983 149.782,189.331 149.782 C 188.679 149.782,188.412 149.852,188.738 149.937 M272.051 151.397 C 272.051 152.049,272.121 152.316,272.206 151.990 C 272.292 151.664,272.292 151.130,272.206 150.804 C 272.121 150.478,272.051 150.745,272.051 151.397 M188.738 151.978 C 189.251 152.056,190.089 152.056,190.601 151.978 C 191.113 151.901,190.694 151.837,189.670 151.837 C 188.645 151.837,188.226 151.901,188.738 151.978 M193.480 151.978 C 193.992 152.056,194.831 152.056,195.343 151.978 C 195.855 151.901,195.436 151.837,194.412 151.837 C 193.387 151.837,192.968 151.901,193.480 151.978 M235.394 161.727 C 236.026 162.379,236.619 162.913,236.712 162.913 C 236.805 162.913,236.364 162.379,235.732 161.727 C 235.100 161.075,234.507 160.542,234.414 160.542 C 234.321 160.542,234.762 161.075,235.394 161.727 M196.190 168.904 C 196.516 168.989,197.049 168.989,197.375 168.904 C 197.701 168.819,197.434 168.749,196.782 168.749 C 196.130 168.749,195.864 168.819,196.190 168.904 M202.286 168.904 C 202.612 168.989,203.146 168.989,203.472 168.904 C 203.798 168.819,203.531 168.749,202.879 168.749 C 202.227 168.749,201.960 168.819,202.286 168.904 M190.436 177.720 C 190.951 177.798,191.713 177.796,192.130 177.715 C 192.547 177.635,192.125 177.571,191.194 177.574 C 190.262 177.576,189.922 177.642,190.436 177.720 M150.042 180.279 C 150.042 180.331,151.224 181.512,152.667 182.904 L 155.292 185.436 152.760 182.811 C 150.409 180.373,150.042 180.032,150.042 180.279 M242.506 182.727 C 241.119 184.124,240.059 185.267,240.152 185.267 C 240.246 185.267,241.457 184.124,242.845 182.727 C 244.233 181.329,245.292 180.186,245.199 180.186 C 245.106 180.186,243.894 181.329,242.506 182.727 M246.731 183.319 L 244.369 185.775 246.825 183.413 C 249.105 181.219,249.435 180.864,249.187 180.864 C 249.135 180.864,248.030 181.969,246.731 183.319 M157.494 181.986 C 157.494 182.044,157.989 182.539,158.594 183.087 L 159.695 184.081 158.700 182.981 C 157.773 181.954,157.494 181.724,157.494 181.986 M255.038 186.452 C 253.650 187.849,252.591 188.992,252.684 188.992 C 252.777 188.992,253.989 187.849,255.377 186.452 C 256.765 185.055,257.824 183.912,257.731 183.912 C 257.638 183.912,256.426 185.055,255.038 186.452 M150.889 196.444 C 152.183 197.748,153.318 198.815,153.411 198.815 C 153.504 198.815,152.522 197.748,151.228 196.444 C 149.934 195.140,148.799 194.073,148.706 194.073 C 148.613 194.073,149.595 195.140,150.889 196.444 M195.174 200.064 C 195.500 200.149,196.033 200.149,196.359 200.064 C 196.685 199.979,196.418 199.909,195.766 199.909 C 195.114 199.909,194.848 199.979,195.174 200.064 M204.830 200.070 C 205.252 200.151,205.861 200.148,206.185 200.063 C 206.509 199.979,206.164 199.912,205.419 199.916 C 204.674 199.920,204.409 199.989,204.830 200.070 M234.039 201.185 C 233.014 201.727,232.295 202.177,232.441 202.186 C 232.801 202.207,236.071 200.538,236.071 200.333 C 236.071 200.107,236.118 200.087,234.039 201.185 M196.867 203.469 C 198.124 203.534,200.182 203.534,201.439 203.469 C 202.697 203.404,201.668 203.350,199.153 203.350 C 196.638 203.350,195.610 203.404,196.867 203.469 M186.537 211.930 C 187.142 212.005,188.133 212.005,188.738 211.930 C 189.344 211.855,188.848 211.793,187.638 211.793 C 186.427 211.793,185.931 211.855,186.537 211.930 M194.327 211.930 C 194.932 212.005,195.923 212.005,196.528 211.930 C 197.134 211.855,196.638 211.793,195.428 211.793 C 194.217 211.793,193.721 211.855,194.327 211.930 M161.368 297.814 C 161.276 298.055,161.247 300.456,161.304 303.149 L 161.409 308.044 161.483 302.894 L 161.558 297.743 164.014 297.627 L 166.469 297.510 164.003 297.442 C 162.245 297.394,161.488 297.501,161.368 297.814 M182.210 297.565 L 183.217 297.755 183.324 302.646 L 183.432 307.537 183.418 302.541 L 183.404 297.544 182.303 297.460 C 181.234 297.378,181.232 297.381,182.210 297.565 M195.219 297.863 C 195.116 298.132,195.103 298.627,195.190 298.964 C 195.295 299.370,195.362 299.266,195.388 298.657 L 195.428 297.737 199.069 297.628 L 202.710 297.519 199.058 297.447 C 196.142 297.390,195.369 297.474,195.219 297.863 M213.847 297.863 C 213.744 298.132,213.731 298.627,213.819 298.964 C 213.924 299.370,213.991 299.266,214.017 298.657 L 214.056 297.737 217.697 297.628 L 221.338 297.519 217.686 297.447 C 214.771 297.390,213.997 297.474,213.847 297.863 M236.404 297.616 C 237.239 297.695,238.051 297.940,238.208 298.161 C 238.405 298.437,238.451 298.404,238.357 298.052 C 238.260 297.695,237.725 297.534,236.553 297.508 L 234.886 297.472 236.404 297.616 M196.528 299.650 C 197.041 299.727,197.879 299.727,198.391 299.650 C 198.903 299.572,198.484 299.509,197.460 299.509 C 196.435 299.509,196.016 299.572,196.528 299.650 M215.326 299.652 C 215.931 299.727,216.922 299.727,217.528 299.652 C 218.133 299.577,217.638 299.516,216.427 299.516 C 215.216 299.516,214.721 299.577,215.326 299.652 M124.691 302.710 L 124.640 303.810 139.627 303.729 L 154.615 303.648 139.819 303.556 L 125.023 303.465 124.882 302.537 C 124.752 301.677,124.738 301.690,124.691 302.710 M274.682 302.621 L 274.682 303.465 259.865 303.556 L 245.047 303.648 260.034 303.729 L 275.021 303.810 275.021 302.794 C 275.021 302.235,274.945 301.778,274.852 301.778 C 274.759 301.778,274.682 302.158,274.682 302.621 M164.691 304.721 C 165.017 304.806,165.550 304.806,165.876 304.721 C 166.202 304.636,165.936 304.566,165.284 304.566 C 164.632 304.566,164.365 304.636,164.691 304.721 M234.929 306.110 C 234.838 306.258,235.325 306.325,236.010 306.260 C 238.105 306.062,238.352 305.923,236.684 305.882 C 235.810 305.860,235.021 305.963,234.929 306.110 " stroke="none" fill="#86712a" fill-rule="evenodd"></path><path id="path4" d="M237.006 224.129 C 237.345 224.369,237.415 230.535,237.345 254.112 C 237.296 270.437,237.372 283.678,237.512 283.538 C 238.062 282.988,237.642 224.117,237.087 223.965 C 236.707 223.861,236.687 223.903,237.006 224.129 M225.715 235.732 C 225.715 239.738,225.764 241.376,225.824 239.373 C 225.884 237.371,225.884 234.094,225.824 232.091 C 225.764 230.089,225.715 231.727,225.715 235.732 M138.107 238.004 C 138.529 238.085,139.138 238.082,139.462 237.997 C 139.786 237.913,139.441 237.846,138.696 237.850 C 137.951 237.854,137.686 237.923,138.107 238.004 M142.510 238.004 C 142.932 238.085,143.541 238.082,143.865 237.997 C 144.189 237.913,143.844 237.846,143.099 237.850 C 142.354 237.854,142.089 237.923,142.510 238.004 M185.521 238.004 C 185.940 238.084,186.626 238.084,187.045 238.004 C 187.464 237.923,187.121 237.857,186.283 237.857 C 185.445 237.857,185.102 237.923,185.521 238.004 M193.158 239.458 C 193.158 240.483,193.222 240.902,193.299 240.390 C 193.377 239.877,193.377 239.039,193.299 238.527 C 193.222 238.014,193.158 238.434,193.158 239.458 M210.246 238.004 C 210.665 238.084,211.351 238.084,211.770 238.004 C 212.189 237.923,211.846 237.857,211.008 237.857 C 210.169 237.857,209.826 237.923,210.246 238.004 M214.479 237.998 C 214.805 238.083,215.339 238.083,215.665 237.998 C 215.991 237.913,215.724 237.843,215.072 237.843 C 214.420 237.843,214.153 237.913,214.479 237.998 M261.393 238.004 C 261.814 238.085,262.424 238.082,262.747 237.997 C 263.071 237.913,262.727 237.846,261.981 237.850 C 261.236 237.854,260.971 237.923,261.393 238.004 M265.453 238.004 C 265.872 238.084,266.558 238.084,266.977 238.004 C 267.396 237.923,267.053 237.857,266.215 237.857 C 265.377 237.857,265.034 237.923,265.453 238.004 M308.471 238.004 C 308.893 238.085,309.502 238.082,309.826 237.997 C 310.150 237.913,309.805 237.846,309.060 237.850 C 308.315 237.854,308.050 237.923,308.471 238.004 M313.552 238.004 C 313.973 238.085,314.583 238.082,314.907 237.997 C 315.230 237.913,314.886 237.846,314.141 237.850 C 313.395 237.854,313.130 237.923,313.552 238.004 M92.887 238.675 C 93.213 238.761,93.747 238.761,94.073 238.675 C 94.399 238.590,94.132 238.521,93.480 238.521 C 92.828 238.521,92.561 238.590,92.887 238.675 M172.058 243.692 C 171.235 244.530,170.638 245.216,170.731 245.216 C 170.824 245.216,171.574 244.530,172.396 243.692 C 173.219 242.854,173.816 242.168,173.723 242.168 C 173.630 242.168,172.880 242.854,172.058 243.692 M327.166 243.607 C 327.997 244.492,328.721 245.216,328.775 245.216 C 329.029 245.216,328.760 244.912,327.265 243.508 L 325.656 241.998 327.166 243.607 M246.727 244.962 L 245.047 246.740 246.825 245.059 C 248.477 243.498,248.758 243.184,248.505 243.184 C 248.452 243.184,247.652 243.984,246.727 244.962 M123.095 244.962 L 122.100 246.063 123.201 245.068 C 124.227 244.141,124.457 243.861,124.195 243.861 C 124.137 243.861,123.642 244.356,123.095 244.962 M195.576 244.962 L 194.581 246.063 195.682 245.068 C 196.287 244.521,196.782 244.025,196.782 243.967 C 196.782 243.705,196.503 243.936,195.576 244.962 M131.901 252.413 L 130.906 253.514 132.007 252.519 C 133.033 251.592,133.263 251.312,133.002 251.312 C 132.943 251.312,132.448 251.808,131.901 252.413 M148.688 251.418 C 148.688 251.477,149.183 251.972,149.788 252.519 L 150.889 253.514 149.894 252.413 C 148.967 251.387,148.688 251.157,148.688 251.418 M333.017 256.732 C 333.017 257.384,333.086 257.650,333.172 257.324 C 333.257 256.998,333.257 256.465,333.172 256.139 C 333.086 255.813,333.017 256.080,333.017 256.732 M166.790 267.231 C 166.790 273.285,166.836 275.762,166.892 272.735 C 166.948 269.708,166.948 264.754,166.892 261.727 C 166.836 258.700,166.790 261.177,166.790 267.231 M290.073 267.062 C 290.073 272.464,290.120 274.627,290.177 271.868 C 290.234 269.108,290.234 264.688,290.177 262.045 C 290.120 259.402,290.073 261.660,290.073 267.062 M178.573 270.684 L 178.493 283.451 176.884 283.578 L 175.275 283.705 176.895 283.766 C 179.000 283.846,178.854 284.890,178.747 270.447 L 178.654 257.917 178.573 270.684 M301.778 271.025 C 301.685 278.048,301.725 283.678,301.867 283.535 C 302.009 283.393,302.085 277.647,302.036 270.766 L 301.947 258.256 301.778 271.025 M66.463 259.780 C 66.463 260.432,66.533 260.699,66.618 260.373 C 66.703 260.047,66.703 259.513,66.618 259.187 C 66.533 258.861,66.463 259.128,66.463 259.780 M288.010 261.473 C 288.010 263.057,288.068 263.704,288.140 262.913 C 288.211 262.121,288.211 260.826,288.140 260.034 C 288.068 259.242,288.010 259.890,288.010 261.473 M114.970 270.618 C 114.970 276.859,115.016 279.412,115.071 276.291 C 115.127 273.171,115.127 268.065,115.071 264.945 C 115.016 261.825,114.970 264.378,114.970 270.618 M164.945 271.533 C 164.852 278.276,164.892 283.678,165.034 283.535 C 165.176 283.393,165.252 277.875,165.203 271.274 L 165.114 259.272 164.945 271.533 M239.894 261.304 C 239.896 262.235,239.962 262.576,240.040 262.061 C 240.118 261.547,240.116 260.784,240.035 260.368 C 239.955 259.951,239.891 260.373,239.894 261.304 M103.407 261.981 C 103.409 263.099,103.472 263.515,103.548 262.907 C 103.623 262.298,103.622 261.383,103.544 260.875 C 103.467 260.366,103.405 260.864,103.407 261.981 M153.515 261.304 C 153.518 262.049,153.588 262.314,153.669 261.893 C 153.750 261.471,153.747 260.862,153.662 260.538 C 153.577 260.214,153.511 260.559,153.515 261.304 M200.593 261.304 C 200.597 262.049,200.667 262.314,200.748 261.893 C 200.829 261.471,200.826 260.862,200.741 260.538 C 200.656 260.214,200.590 260.559,200.593 261.304 M66.463 264.183 C 66.463 264.835,66.533 265.102,66.618 264.776 C 66.703 264.450,66.703 263.916,66.618 263.590 C 66.533 263.264,66.463 263.531,66.463 264.183 M269.941 265.538 L 252.159 265.716 269.836 265.796 C 281.343 265.848,287.586 265.758,287.722 265.538 C 287.837 265.351,287.884 265.235,287.827 265.279 C 287.769 265.323,279.721 265.440,269.941 265.538 M149.685 270.195 L 148.518 271.465 149.788 270.298 C 150.971 269.211,151.214 268.925,150.956 268.925 C 150.899 268.925,150.327 269.496,149.685 270.195 M204.234 270.110 C 204.866 270.762,205.459 271.296,205.552 271.296 C 205.645 271.296,205.204 270.762,204.572 270.110 C 203.940 269.458,203.347 268.925,203.254 268.925 C 203.161 268.925,203.602 269.458,204.234 270.110 M222.333 270.025 L 221.338 271.126 222.439 270.131 C 223.044 269.584,223.539 269.089,223.539 269.031 C 223.539 268.769,223.260 268.999,222.333 270.025 M140.478 273.906 C 140.899 273.987,141.509 273.984,141.833 273.899 C 142.157 273.814,141.812 273.748,141.067 273.752 C 140.322 273.756,140.057 273.825,140.478 273.906 M263.421 274.583 C 263.840 274.664,264.526 274.664,264.945 274.583 C 265.364 274.502,265.021 274.436,264.183 274.436 C 263.345 274.436,263.002 274.502,263.421 274.583 M195.597 277.731 C 196.325 278.476,196.996 279.086,197.089 279.086 C 197.182 279.086,196.663 278.476,195.936 277.731 C 195.208 276.986,194.537 276.376,194.443 276.376 C 194.350 276.376,194.869 276.986,195.597 277.731 M281.118 277.900 C 280.295 278.738,279.698 279.424,279.791 279.424 C 279.884 279.424,280.634 278.738,281.456 277.900 C 282.279 277.062,282.876 276.376,282.783 276.376 C 282.690 276.376,281.940 277.062,281.118 277.900 M329.636 283.735 C 330.334 283.808,331.478 283.808,332.176 283.735 C 332.875 283.662,332.303 283.602,330.906 283.602 C 329.509 283.602,328.937 283.662,329.636 283.735 M298.815 284.061 C 299.141 284.146,299.674 284.146,300.000 284.061 C 300.326 283.976,300.059 283.906,299.407 283.906 C 298.755 283.906,298.489 283.976,298.815 284.061 M159.949 284.399 C 160.275 284.485,160.809 284.485,161.135 284.399 C 161.461 284.314,161.194 284.245,160.542 284.245 C 159.890 284.245,159.623 284.314,159.949 284.399 M89.340 284.753 C 90.137 284.825,91.356 284.824,92.050 284.751 C 92.743 284.678,92.091 284.620,90.601 284.621 C 89.111 284.622,88.543 284.682,89.340 284.753 M100.236 287.807 L 99.069 289.077 100.339 287.910 C 101.521 286.823,101.765 286.537,101.506 286.537 C 101.449 286.537,100.878 287.108,100.236 287.807 M108.721 295.851 C 107.899 296.689,107.302 297.375,107.395 297.375 C 107.488 297.375,108.237 296.689,109.060 295.851 C 109.883 295.013,110.480 294.327,110.387 294.327 C 110.293 294.327,109.544 295.013,108.721 295.851 M87.642 302.356 C 88.063 302.437,88.673 302.434,88.996 302.350 C 89.320 302.265,88.975 302.199,88.230 302.202 C 87.485 302.206,87.220 302.275,87.642 302.356 M93.226 302.350 C 93.552 302.436,94.086 302.436,94.412 302.350 C 94.738 302.265,94.471 302.195,93.819 302.195 C 93.167 302.195,92.900 302.265,93.226 302.350 " stroke="none" fill="#818181" fill-rule="evenodd"></path></g></svg>